<?xml version="1.0" encoding="UTF-8"?>
<!DOCTYPE svg PUBLIC "-//W3C//DTD SVG 1.1//EN" "http://www.w3.org/Graphics/SVG/1.1/DTD/svg11.dtd">
<svg xmlns="http://www.w3.org/2000/svg" version="1.1" width="200px" height="200px" style="shape-rendering:geometricPrecision; text-rendering:geometricPrecision; image-rendering:optimizeQuality; fill-rule:evenodd; clip-rule:evenodd" xmlns:xlink="http://www.w3.org/1999/xlink">
<g><path style="opacity:1" fill="#fefefe" d="M -0.5,-0.5 C 66.1667,-0.5 132.833,-0.5 199.5,-0.5C 199.5,66.1667 199.5,132.833 199.5,199.5C 132.833,199.5 66.1667,199.5 -0.5,199.5C -0.5,132.833 -0.5,66.1667 -0.5,-0.5 Z"/></g>
<g><path style="opacity:1" fill="#b486c7" d="M 103.5,0.5 C 116.313,13.1051 121.48,28.4385 119,46.5C 117.137,59.2122 112.304,70.5455 104.5,80.5C 102.298,79.2203 100.132,79.2203 98,80.5C 88.9649,66.1032 84.9649,50.4366 86,33.5C 88.2161,20.3922 94.0495,9.39218 103.5,0.5 Z"/></g>
<g><path style="opacity:1" fill="#955cab" d="M 32.5,32.5 C 60.3134,31.8171 79.8134,44.1504 91,69.5C 92.9714,73.7401 94.3047,78.0734 95,82.5C 93.647,83.6853 92.4803,85.0186 91.5,86.5C 65.4004,85.5672 46.9004,73.2339 36,49.5C 33.7206,44.051 32.5539,38.3843 32.5,32.5 Z"/></g>
<g><path style="opacity:1" fill="#c28cc2" d="M 158.5,37.5 C 163.844,37.334 169.177,37.5006 174.5,38C 172.017,59.8512 160.35,74.8512 139.5,83C 130.711,85.9479 121.711,87.7813 112.5,88.5C 112.256,85.7374 110.923,83.5707 108.5,82C 114.504,68.3333 123.17,56.6666 134.5,47C 142.063,42.3727 150.063,39.206 158.5,37.5 Z"/></g>
<g><path style="opacity:1" fill="#8b29b2" d="M 50.5,84.5 C 63.8036,83.8843 76.8036,85.551 89.5,89.5C 89.6815,92.553 89.8481,95.553 90,98.5C 77.498,111.334 62.3313,118.668 44.5,120.5C 33.4226,120.98 23.0893,118.48 13.5,113C 12.4829,111.951 12.3162,110.784 13,109.5C 22.2185,96.0932 34.7185,87.7599 50.5,84.5 Z"/></g>
<g><path style="opacity:1" fill="#cfabcf" d="M 123.5,88.5 C 151.616,84.5632 172.95,94.5632 187.5,118.5C 187.291,119.086 186.957,119.586 186.5,120C 162.657,130.182 140.991,126.849 121.5,110C 117.5,106 113.5,102 109.5,98C 112.041,96.1516 113.041,93.6516 112.5,90.5C 116.337,90.0691 120.003,89.4025 123.5,88.5 Z"/></g>
<g><path style="opacity:1" fill="#943ab7" d="M 110.5,128.5 C 124.609,127.735 127.776,133.068 120,144.5C 109.43,154.702 96.93,161.035 82.5,163.5C 82.2723,183.428 90.939,188.594 108.5,179C 113.805,173.865 118.138,168.032 121.5,161.5C 122.5,160.833 123.5,160.167 124.5,159.5C 124.833,159.833 125.167,160.167 125.5,160.5C 124.994,170.457 124.827,180.457 125,190.5C 122.833,192.667 120.667,194.833 118.5,197C 115.986,198.252 113.32,198.752 110.5,198.5C 110.5,197.5 110.5,196.5 110.5,195.5C 118.329,197.171 121.996,194.005 121.5,186C 120.853,180.802 120.019,175.636 119,170.5C 111.163,181.168 100.663,186.668 87.5,187C 78.6571,181.495 75.6571,173.661 78.5,163.5C 68.9529,161.761 65.4529,156.094 68,146.5C 69.6462,142.186 72.4796,139.352 76.5,138C 67.8046,146.451 68.6379,153.618 79,159.5C 84.2839,150.529 90.7839,142.362 98.5,135C 102.434,132.536 106.434,130.369 110.5,128.5 Z"/></g>
<g><path style="opacity:1" fill="#fcfafd" d="M 107.5,131.5 C 117.738,129.895 121.238,133.895 118,143.5C 108.844,153.995 97.3443,159.495 83.5,160C 87.6714,147.087 95.6714,137.587 107.5,131.5 Z"/></g>
</svg>
